<svg width="80" height="32" viewBox="0 0 80 32" fill="none" xmlns="http://www.w3.org/2000/svg">
<path d="M0 16C0 7.16344 7.16344 0 16 0H64C72.8366 0 80 7.16344 80 16C80 24.8366 72.8366 32 64 32H16C7.16344 32 0 24.8366 0 16Z" fill="white"/>
<path d="M22.816 16.416C22.816 19.616 25.392 22.16 28.592 22.16C30.912 22.16 32.544 21.104 32.544 21.104C32.608 21.056 32.672 20.928 32.672 20.848V17.184C32.672 17.024 32.544 16.88 32.384 16.88H29.616C29.44 16.88 29.312 17.008 29.312 17.184V17.776C29.312 17.936 29.44 18.064 29.616 18.064H31.456V20.304C31.456 20.304 30.336 20.976 28.576 20.976C26.048 20.976 24.128 18.816 24.128 16.352C24.128 13.872 26.048 11.76 28.576 11.76C29.648 11.76 30.8 12.288 31.616 13.008C31.792 13.168 31.888 13.184 32.032 13.024C32.16 12.88 32.336 12.72 32.48 12.576C32.608 12.448 32.592 12.256 32.464 12.128C31.376 11.2 30.208 10.64 28.592 10.64C25.392 10.64 22.816 13.216 22.816 16.416Z" fill="#27214D"/>
<path d="M34.2814 18.784C34.2814 20.624 35.6894 22.16 37.4654 22.16C39.2414 22.16 40.6494 20.624 40.6494 18.784C40.6494 16.976 39.2414 15.44 37.4654 15.44C35.6894 15.44 34.2814 16.976 34.2814 18.784ZM35.3854 18.784C35.3854 17.52 36.2974 16.496 37.4654 16.496C38.6334 16.496 39.5454 17.52 39.5454 18.784C39.5454 20.08 38.6334 21.12 37.4654 21.12C36.2974 21.12 35.3854 20.08 35.3854 18.784Z" fill="#27214D"/>
<path d="M46.027 21.696C46.027 21.856 46.171 22 46.331 22H46.667C46.811 22 46.907 21.888 46.939 21.744L47.035 21.312C47.035 21.312 47.803 22.16 49.003 22.16C50.635 22.16 51.915 20.624 51.915 18.784C51.915 16.912 50.763 15.44 48.843 15.44C47.787 15.44 47.131 15.856 47.131 15.856V11.104C47.131 10.944 46.987 10.8 46.827 10.8H46.331C46.171 10.8 46.027 10.944 46.027 11.104V21.696ZM47.147 20.096V16.896C47.147 16.896 47.819 16.512 48.699 16.512C50.091 16.512 50.795 17.52 50.795 18.8C50.795 20.048 50.059 21.152 48.891 21.152C47.739 21.152 47.147 20.096 47.147 20.096Z" fill="#27214D"/>
<path d="M53.2658 20.064C53.2658 21.344 54.1137 22.16 55.2337 22.16C56.2257 22.16 56.8818 21.664 57.2178 21.328L57.3457 21.76C57.3937 21.904 57.4418 22 57.6178 22H57.9217C58.0817 22 58.2257 21.856 58.2257 21.696V18.144C58.2257 16.272 57.8257 15.44 56.1937 15.44C54.9937 15.44 54.0657 15.808 53.9697 15.856C53.8257 15.92 53.7298 16.016 53.7938 16.208L53.9217 16.608C53.9697 16.752 54.0658 16.832 54.2257 16.768C54.5137 16.656 55.2658 16.416 56.1458 16.416C57.0578 16.416 57.2017 16.96 57.1857 18.144C57.1857 18.144 56.5137 17.936 55.8257 17.936C54.1777 17.936 53.2658 18.848 53.2658 20.064ZM54.2897 20.064C54.2897 19.232 54.9297 18.784 55.8257 18.784C56.5297 18.784 56.9778 18.928 57.1698 19.04V20.304C56.8978 20.704 56.2098 21.2 55.4098 21.2C54.7218 21.2 54.2897 20.704 54.2897 20.064Z" fill="#27214D"/>
<path d="M59.9685 18.816C59.9685 20.736 61.4725 22.16 63.2485 22.16C64.3365 22.16 65.2165 21.584 65.6965 20.816C65.7925 20.656 65.7445 20.48 65.5845 20.368L65.4085 20.24C65.2325 20.112 65.1205 20.08 64.9285 20.272C64.5605 20.624 64.1925 21.104 63.2325 21.104C62.0325 21.104 61.1205 20.08 61.1205 18.8C61.1205 17.52 62.0485 16.528 63.2485 16.528C63.8725 16.528 64.4005 16.832 64.7205 17.2C64.8645 17.328 64.9445 17.488 65.1845 17.264L65.4885 17.008C65.6325 16.896 65.6645 16.704 65.5525 16.56C64.9765 15.824 64.2245 15.44 63.2645 15.44C61.5205 15.44 59.9685 16.928 59.9685 18.816Z" fill="#27214D"/>
<path d="M67.527 21.696C67.527 21.856 67.671 22 67.831 22H68.327C68.487 22 68.631 21.856 68.631 21.696V18.784L71.879 21.872C71.943 21.92 72.055 22 72.199 22H73.079C73.351 22 73.367 21.712 73.239 21.6L69.703 18.432L72.743 16C72.855 15.904 72.871 15.6 72.599 15.6H71.735C71.607 15.6 71.479 15.68 71.351 15.792L68.631 18.032V11.104C68.631 10.944 68.487 10.8 68.327 10.8H67.831C67.671 10.8 67.527 10.944 67.527 11.104V21.696Z" fill="#27214D"/>
<path d="M16.3408 25.9999C16.1273 26.0006 15.9164 25.9535 15.7235 25.8621C15.5307 25.7706 15.3608 25.6371 15.2263 25.4714L8.32504 16.9008C8.11489 16.6452 8 16.3246 8 15.9937C8 15.6628 8.11489 15.3422 8.32504 15.0866L15.4692 6.51603C15.7117 6.22432 16.0602 6.04087 16.438 6.00604C16.8159 5.97122 17.192 6.08787 17.4838 6.33033C17.7756 6.57279 17.9591 6.9212 17.994 7.29892C18.0288 7.67663 17.9121 8.05271 17.6696 8.34442L11.2827 16.0008L17.4553 23.6573C17.63 23.8669 17.741 24.1223 17.7751 24.393C17.8092 24.6638 17.765 24.9386 17.6478 25.1851C17.5305 25.4315 17.3451 25.6392 17.1135 25.7836C16.8819 25.928 16.6137 26.0031 16.3408 25.9999Z" fill="black"/>
</svg>
