<svg width="41" height="41" viewBox="0 0 41 41" fill="none" xmlns="http://www.w3.org/2000/svg">
<path d="M31.5 10.2857C31.9141 10.2857 32.2676 10.4531 32.5606 10.7879C32.8535 11.1228 33 11.5268 33 12C33 12.4732 32.8535 12.8772 32.5606 13.2121C32.2676 13.5469 31.9141 13.7143 31.5 13.7143H31.3242L29.9766 22.5804C29.9141 22.9911 29.7422 23.3304 29.4609 23.5982C29.1797 23.8661 28.8594 24 28.5 24H13.5C13.1406 24 12.8203 23.8661 12.5391 23.5982C12.2578 23.3304 12.0859 22.9911 12.0234 22.5804L10.6758 13.7143H10.5C10.0859 13.7143 9.73243 13.5469 9.43947 13.2121C9.1465 12.8772 9.00001 12.4732 9.00001 12C9.00001 11.5268 9.1465 11.1228 9.43947 10.7879C9.73243 10.4531 10.0859 10.2857 10.5 10.2857H31.5ZM14.6836 21C14.8867 20.9821 15.0567 20.8817 15.1934 20.6987C15.3301 20.5156 15.3906 20.308 15.375 20.0759L15 14.5045C14.9844 14.2723 14.8965 14.0781 14.7363 13.9219C14.5762 13.7656 14.3945 13.6964 14.1914 13.7143C13.9883 13.7321 13.8184 13.8326 13.6817 14.0156C13.5449 14.1987 13.4844 14.4063 13.5 14.6384L13.875 20.2098C13.8906 20.433 13.9707 20.6205 14.1152 20.7723C14.2598 20.9241 14.4297 21 14.625 21H14.6836ZM19.5 20.1429V14.5714C19.5 14.3393 19.4258 14.1384 19.2774 13.9688C19.1289 13.7991 18.9531 13.7143 18.75 13.7143C18.5469 13.7143 18.3711 13.7991 18.2227 13.9688C18.0742 14.1384 18 14.3393 18 14.5714V20.1429C18 20.375 18.0742 20.5759 18.2227 20.7455C18.3711 20.9152 18.5469 21 18.75 21C18.9531 21 19.1289 20.9152 19.2774 20.7455C19.4258 20.5759 19.5 20.375 19.5 20.1429ZM24 20.1429V14.5714C24 14.3393 23.9258 14.1384 23.7774 13.9688C23.6289 13.7991 23.4531 13.7143 23.25 13.7143C23.0469 13.7143 22.8711 13.7991 22.7227 13.9688C22.5742 14.1384 22.5 14.3393 22.5 14.5714V20.1429C22.5 20.375 22.5742 20.5759 22.7227 20.7455C22.8711 20.9152 23.0469 21 23.25 21C23.4531 21 23.6289 20.9152 23.7774 20.7455C23.9258 20.5759 24 20.375 24 20.1429ZM28.125 20.2098L28.5 14.6384C28.5156 14.4063 28.4551 14.1987 28.3184 14.0156C28.1817 13.8326 28.0117 13.7321 27.8086 13.7143C27.6055 13.6964 27.4238 13.7656 27.2637 13.9219C27.1035 14.0781 27.0156 14.2723 27 14.5045L26.625 20.0759C26.6094 20.308 26.6699 20.5156 26.8067 20.6987C26.9434 20.8817 27.1133 20.9821 27.3164 21H27.375C27.5703 21 27.7402 20.9241 27.8848 20.7723C28.0293 20.6205 28.1094 20.433 28.125 20.2098ZM14.5781 3.91071L13.4883 9.42857H11.9414L13.125 3.52232C13.2734 2.73661 13.6211 2.09598 14.168 1.60045C14.7149 1.10491 15.3399 0.857143 16.043 0.857143H18C18 0.625 18.0742 0.424107 18.2227 0.254464C18.3711 0.0848214 18.5469 0 18.75 0H23.25C23.4531 0 23.6289 0.0848214 23.7774 0.254464C23.9258 0.424107 24 0.625 24 0.857143H25.957C26.6602 0.857143 27.2852 1.10491 27.832 1.60045C28.3789 2.09598 28.7266 2.73661 28.875 3.52232L30.0586 9.42857H28.5117L27.4219 3.91071C27.3359 3.51786 27.1582 3.19643 26.8887 2.94643C26.6192 2.69643 26.3086 2.57143 25.957 2.57143H24C24 2.80357 23.9258 3.00446 23.7774 3.17411C23.6289 3.34375 23.4531 3.42857 23.25 3.42857H18.75C18.5469 3.42857 18.3711 3.34375 18.2227 3.17411C18.0742 3.00446 18 2.80357 18 2.57143H16.043C15.6914 2.57143 15.3809 2.69643 15.1113 2.94643C14.8418 3.19643 14.6641 3.51786 14.5781 3.91071Z" fill="#FFA451"/>
<path d="M0.520012 37.76C0.490012 37.9 0.550012 38 0.700012 38H1.10001C1.18001 38 1.27001 37.93 1.28001 37.86L2.15001 32.71C2.16001 32.71 2.18001 32.71 2.19001 32.71L4.05001 37.99C4.07001 38.05 4.16001 38.1 4.22001 38.1H4.40001C4.46001 38.1 4.55001 38.05 4.57001 37.99L6.41001 32.71C6.42001 32.71 6.44001 32.71 6.45001 32.71L7.34001 37.86C7.36001 37.93 7.44001 38 7.52001 38H7.92001C8.07001 38 8.13001 37.9 8.10001 37.76L6.81001 31.04C6.79001 30.96 6.71001 30.9 6.63001 30.9H6.47001C6.40001 30.9 6.32001 30.95 6.30001 31.01L4.35001 36.52C4.33001 36.52 4.32001 36.52 4.30001 36.52L2.32001 31.01C2.30001 30.95 2.22001 30.9 2.15001 30.9H1.99001C1.91001 30.9 1.83001 30.96 1.81001 31.04L0.520012 37.76Z" fill="#27214D"/>
<path d="M10.457 37.99L9.17704 40.75C9.10704 40.89 9.18704 41 9.33704 41H9.70704C9.77704 41 9.84704 40.94 9.87704 40.88L12.947 34.23C13.017 34.1 12.947 34 12.797 34H12.417C12.347 34 12.277 34.05 12.247 34.11L10.847 37.17H10.837L9.35704 34.11C9.32704 34.05 9.26704 34 9.18704 34H8.74704C8.59704 34 8.53704 34.09 8.59704 34.22L10.457 37.99Z" fill="#27214D"/>
<path d="M16.052 37.81C16.052 37.91 16.142 38 16.242 38H16.452C16.542 38 16.602 37.93 16.622 37.84L16.682 37.57C16.682 37.57 17.162 38.1 17.912 38.1C18.932 38.1 19.732 37.14 19.732 35.99C19.732 34.82 19.012 33.9 17.812 33.9C17.152 33.9 16.742 34.16 16.742 34.16V31.19C16.742 31.09 16.652 31 16.552 31H16.242C16.142 31 16.052 31.09 16.052 31.19V37.81ZM16.752 36.81V34.81C16.752 34.81 17.172 34.57 17.722 34.57C18.592 34.57 19.032 35.2 19.032 36C19.032 36.78 18.572 37.47 17.842 37.47C17.122 37.47 16.752 36.81 16.752 36.81Z" fill="#27214D"/>
<path d="M20.5763 36.79C20.5763 37.59 21.1063 38.1 21.8063 38.1C22.4263 38.1 22.8363 37.79 23.0463 37.58L23.1263 37.85C23.1563 37.94 23.1863 38 23.2963 38H23.4863C23.5863 38 23.6763 37.91 23.6763 37.81V35.59C23.6763 34.42 23.4263 33.9 22.4063 33.9C21.6563 33.9 21.0763 34.13 21.0163 34.16C20.9263 34.2 20.8663 34.26 20.9063 34.38L20.9863 34.63C21.0163 34.72 21.0763 34.77 21.1763 34.73C21.3563 34.66 21.8263 34.51 22.3763 34.51C22.9463 34.51 23.0363 34.85 23.0263 35.59C23.0263 35.59 22.6063 35.46 22.1763 35.46C21.1463 35.46 20.5763 36.03 20.5763 36.79ZM21.2163 36.79C21.2163 36.27 21.6163 35.99 22.1763 35.99C22.6163 35.99 22.8963 36.08 23.0163 36.15V36.94C22.8463 37.19 22.4163 37.5 21.9163 37.5C21.4863 37.5 21.2163 37.19 21.2163 36.79Z" fill="#27214D"/>
<path d="M24.8755 37.65C25.0955 37.82 25.5055 38.1 26.1755 38.1C26.9955 38.1 27.5555 37.55 27.5555 36.97C27.5555 36.25 26.9355 35.94 26.2455 35.61C25.8355 35.41 25.5055 35.26 25.5055 34.93C25.5055 34.76 25.6255 34.53 26.0755 34.53C26.4455 34.53 26.8755 34.77 26.8755 34.77C26.9655 34.82 27.1055 34.79 27.1655 34.68L27.2455 34.52C27.3055 34.41 27.2755 34.27 27.1855 34.21C26.9955 34.08 26.5955 33.9 26.0755 33.9C25.1455 33.9 24.8055 34.52 24.8055 34.94C24.8055 35.62 25.4155 35.97 25.9455 36.23C26.5255 36.52 26.8255 36.68 26.8255 37.03C26.8255 37.3 26.5855 37.51 26.1755 37.51C25.6655 37.51 25.2355 37.16 25.2355 37.16C25.1255 37.09 25.0155 37.11 24.9655 37.19C24.9355 37.24 24.8655 37.38 24.8255 37.44C24.7955 37.51 24.8255 37.61 24.8755 37.65Z" fill="#27214D"/>
<path d="M28.6399 37.81C28.6399 37.91 28.7299 38 28.8299 38H29.1399C29.2399 38 29.3299 37.91 29.3299 37.81V35.99L31.3599 37.92C31.3999 37.95 31.4699 38 31.5599 38H32.1099C32.2799 38 32.2899 37.82 32.2099 37.75L29.9999 35.77L31.8999 34.25C31.9699 34.19 31.9799 34 31.8099 34H31.2699C31.1899 34 31.1099 34.05 31.0299 34.12L29.3299 35.52V31.19C29.3299 31.09 29.2399 31 29.1399 31H28.8299C28.7299 31 28.6399 31.09 28.6399 31.19V37.81Z" fill="#27214D"/>
<path d="M32.7442 36C32.7442 37.15 33.4942 38.1 34.7042 38.1C35.3942 38.1 35.9342 37.83 36.1742 37.64C36.3242 37.53 36.2842 37.47 36.2142 37.38C36.1542 37.3 36.1042 37.23 36.0442 37.15C35.9642 37.04 35.9042 37.09 35.7642 37.17C35.5342 37.31 35.1942 37.47 34.7742 37.47C34.0642 37.47 33.4742 36.84 33.4342 36.17H36.3142C36.4042 36.17 36.4842 36.1 36.4942 36C36.5042 35.93 36.5142 35.8 36.5142 35.73C36.5142 34.68 35.7542 33.9 34.7042 33.9C33.4942 33.9 32.7442 34.87 32.7442 36ZM33.4442 35.61C33.5142 34.99 34.0342 34.51 34.7042 34.51C35.3142 34.51 35.7942 35.03 35.8242 35.61H33.4442Z" fill="#27214D"/>
<path d="M37.8645 37C37.8645 37.62 37.9845 38.1 38.7845 38.1C39.2545 38.1 39.7945 37.85 39.9345 37.76C40.0445 37.69 40.0745 37.63 40.0045 37.51L39.8545 37.26C39.8045 37.18 39.7645 37.12 39.6145 37.2C39.4845 37.27 39.1345 37.42 38.8845 37.42C38.6545 37.42 38.5545 37.34 38.5545 36.94V34.6H39.7145C39.8245 34.6 39.9045 34.51 39.9045 34.41V34.19C39.9045 34.08 39.8245 34 39.7145 34H38.5545V32.87C38.5545 32.77 38.4745 32.68 38.3745 32.68L38.0545 32.7C37.9545 32.7 37.8645 32.79 37.8645 32.89V34H37.3545C37.2445 34 37.1645 34.08 37.1645 34.19V34.41C37.1645 34.51 37.2445 34.6 37.3545 34.6H37.8645V37Z" fill="#27214D"/>
</svg>
